<mxfile host="app.diagrams.net" agent="Mozilla/5.0 (Windows NT 10.0; Win64; x64) AppleWebKit/537.36 (KHTML, like Gecko) Chrome/133.0.0.0 Safari/537.36" version="26.0.16" pages="2">
  <diagram name="使用個案圖" id="iGnmabWATBZdDVJS127J">
    <mxGraphModel dx="1034" dy="507" grid="1" gridSize="10" guides="1" tooltips="1" connect="1" arrows="1" fold="1" page="1" pageScale="1" pageWidth="1169" pageHeight="1654" math="0" shadow="0">
      <root>
        <mxCell id="0" />
        <mxCell id="1" parent="0" />
        <mxCell id="yqGu6KFN0bacbgJnNgSH-1" value="繁忙疏於管理的人&lt;div&gt;&lt;br&gt;&lt;/div&gt;" style="shape=umlActor;verticalLabelPosition=bottom;verticalAlign=top;html=1;outlineConnect=0;" vertex="1" parent="1">
          <mxGeometry x="80" y="290" width="30" height="60" as="geometry" />
        </mxCell>
        <mxCell id="yqGu6KFN0bacbgJnNgSH-2" value="管理會員" style="ellipse;whiteSpace=wrap;html=1;" vertex="1" parent="1">
          <mxGeometry x="180" y="210" width="100" height="70" as="geometry" />
        </mxCell>
        <mxCell id="yqGu6KFN0bacbgJnNgSH-3" value="建立日程" style="ellipse;whiteSpace=wrap;html=1;" vertex="1" parent="1">
          <mxGeometry x="220" y="340" width="110" height="70" as="geometry" />
        </mxCell>
        <mxCell id="yqGu6KFN0bacbgJnNgSH-4" value="維護日程" style="ellipse;whiteSpace=wrap;html=1;" vertex="1" parent="1">
          <mxGeometry x="270" y="560" width="120" height="80" as="geometry" />
        </mxCell>
        <mxCell id="yqGu6KFN0bacbgJnNgSH-5" value="管理系統" style="shape=umlActor;verticalLabelPosition=bottom;verticalAlign=top;html=1;outlineConnect=0;" vertex="1" parent="1">
          <mxGeometry x="480" y="110" width="30" height="60" as="geometry" />
        </mxCell>
        <mxCell id="yqGu6KFN0bacbgJnNgSH-6" value="" style="endArrow=none;html=1;rounded=0;entryX=0;entryY=0.5;entryDx=0;entryDy=0;" edge="1" parent="1" target="yqGu6KFN0bacbgJnNgSH-3">
          <mxGeometry width="50" height="50" relative="1" as="geometry">
            <mxPoint x="110" y="330" as="sourcePoint" />
            <mxPoint x="160" y="280" as="targetPoint" />
          </mxGeometry>
        </mxCell>
        <mxCell id="yqGu6KFN0bacbgJnNgSH-7" value="" style="endArrow=none;html=1;rounded=0;" edge="1" parent="1" source="yqGu6KFN0bacbgJnNgSH-1">
          <mxGeometry width="50" height="50" relative="1" as="geometry">
            <mxPoint x="220" y="390" as="sourcePoint" />
            <mxPoint x="180" y="250" as="targetPoint" />
          </mxGeometry>
        </mxCell>
        <mxCell id="yqGu6KFN0bacbgJnNgSH-8" value="" style="endArrow=none;html=1;rounded=0;exitX=0;exitY=0;exitDx=0;exitDy=0;" edge="1" parent="1" source="yqGu6KFN0bacbgJnNgSH-4">
          <mxGeometry width="50" height="50" relative="1" as="geometry">
            <mxPoint x="100" y="420" as="sourcePoint" />
            <mxPoint x="150" y="370" as="targetPoint" />
          </mxGeometry>
        </mxCell>
        <mxCell id="yqGu6KFN0bacbgJnNgSH-9" value="&amp;lt;&amp;lt;extend&amp;gt;&amp;gt;" style="html=1;verticalAlign=bottom;labelBackgroundColor=none;endArrow=open;endFill=0;dashed=1;rounded=0;entryX=0.571;entryY=1.029;entryDx=0;entryDy=0;entryPerimeter=0;exitX=0.297;exitY=0.04;exitDx=0;exitDy=0;exitPerimeter=0;" edge="1" parent="1" source="yqGu6KFN0bacbgJnNgSH-4" target="yqGu6KFN0bacbgJnNgSH-3">
          <mxGeometry width="160" relative="1" as="geometry">
            <mxPoint x="260" y="470" as="sourcePoint" />
            <mxPoint x="420" y="470" as="targetPoint" />
          </mxGeometry>
        </mxCell>
        <mxCell id="yqGu6KFN0bacbgJnNgSH-10" value="" style="endArrow=none;html=1;rounded=0;exitX=1;exitY=0.5;exitDx=0;exitDy=0;" edge="1" parent="1" source="yqGu6KFN0bacbgJnNgSH-11">
          <mxGeometry width="50" height="50" relative="1" as="geometry">
            <mxPoint x="540" y="330" as="sourcePoint" />
            <mxPoint x="610" y="320" as="targetPoint" />
          </mxGeometry>
        </mxCell>
        <mxCell id="yqGu6KFN0bacbgJnNgSH-11" value="推薦日程" style="ellipse;whiteSpace=wrap;html=1;" vertex="1" parent="1">
          <mxGeometry x="423" y="290" width="120" height="80" as="geometry" />
        </mxCell>
        <mxCell id="yqGu6KFN0bacbgJnNgSH-12" value="使用動態排程" style="ellipse;whiteSpace=wrap;html=1;" vertex="1" parent="1">
          <mxGeometry x="60" y="540" width="120" height="80" as="geometry" />
        </mxCell>
        <mxCell id="yqGu6KFN0bacbgJnNgSH-13" value="" style="endArrow=none;html=1;rounded=0;exitX=0.5;exitY=0;exitDx=0;exitDy=0;" edge="1" parent="1" source="yqGu6KFN0bacbgJnNgSH-12">
          <mxGeometry width="50" height="50" relative="1" as="geometry">
            <mxPoint x="50" y="400" as="sourcePoint" />
            <mxPoint x="100" y="350" as="targetPoint" />
          </mxGeometry>
        </mxCell>
        <mxCell id="yqGu6KFN0bacbgJnNgSH-14" value="&amp;lt;&amp;lt;extend&amp;gt;&amp;gt;" style="html=1;verticalAlign=bottom;labelBackgroundColor=none;endArrow=open;endFill=0;dashed=1;rounded=0;exitX=0.307;exitY=0.985;exitDx=0;exitDy=0;exitPerimeter=0;" edge="1" parent="1" source="yqGu6KFN0bacbgJnNgSH-11" target="yqGu6KFN0bacbgJnNgSH-4">
          <mxGeometry width="160" relative="1" as="geometry">
            <mxPoint x="452.76" y="320.00000000000006" as="sourcePoint" />
            <mxPoint x="350" y="532.8" as="targetPoint" />
          </mxGeometry>
        </mxCell>
        <mxCell id="yqGu6KFN0bacbgJnNgSH-15" value="&amp;lt;&amp;lt;extend&amp;gt;&amp;gt;" style="html=1;verticalAlign=bottom;labelBackgroundColor=none;endArrow=open;endFill=0;dashed=1;rounded=0;exitX=0;exitY=0.5;exitDx=0;exitDy=0;entryX=1;entryY=0.5;entryDx=0;entryDy=0;" edge="1" parent="1" source="yqGu6KFN0bacbgJnNgSH-11" target="yqGu6KFN0bacbgJnNgSH-3">
          <mxGeometry width="160" relative="1" as="geometry">
            <mxPoint x="492" y="110" as="sourcePoint" />
            <mxPoint x="323" y="353" as="targetPoint" />
          </mxGeometry>
        </mxCell>
        <mxCell id="yqGu6KFN0bacbgJnNgSH-16" value="ChatGpt API" style="shape=umlActor;verticalLabelPosition=bottom;verticalAlign=top;html=1;outlineConnect=0;" vertex="1" parent="1">
          <mxGeometry x="620" y="300" width="30" height="60" as="geometry" />
        </mxCell>
        <mxCell id="yqGu6KFN0bacbgJnNgSH-17" value="" style="endArrow=none;html=1;rounded=0;exitX=0.979;exitY=0.343;exitDx=0;exitDy=0;exitPerimeter=0;" edge="1" parent="1" source="yqGu6KFN0bacbgJnNgSH-2">
          <mxGeometry width="50" height="50" relative="1" as="geometry">
            <mxPoint x="390" y="240" as="sourcePoint" />
            <mxPoint x="460" y="182" as="targetPoint" />
          </mxGeometry>
        </mxCell>
        <mxCell id="yqGu6KFN0bacbgJnNgSH-18" value="管理日程" style="ellipse;whiteSpace=wrap;html=1;" vertex="1" parent="1">
          <mxGeometry x="270" y="100" width="100" height="70" as="geometry" />
        </mxCell>
        <mxCell id="yqGu6KFN0bacbgJnNgSH-19" value="" style="endArrow=none;html=1;rounded=0;exitX=1.036;exitY=0.715;exitDx=0;exitDy=0;exitPerimeter=0;" edge="1" parent="1" source="yqGu6KFN0bacbgJnNgSH-18">
          <mxGeometry width="50" height="50" relative="1" as="geometry">
            <mxPoint x="288" y="210" as="sourcePoint" />
            <mxPoint x="470" y="158" as="targetPoint" />
          </mxGeometry>
        </mxCell>
        <mxCell id="yqGu6KFN0bacbgJnNgSH-20" value="&amp;lt;&amp;lt;extend&amp;gt;&amp;gt;" style="html=1;verticalAlign=bottom;labelBackgroundColor=none;endArrow=open;endFill=0;dashed=1;rounded=0;entryX=0.434;entryY=-0.091;entryDx=0;entryDy=0;entryPerimeter=0;exitX=0.634;exitY=0.993;exitDx=0;exitDy=0;exitPerimeter=0;" edge="1" parent="1" source="yqGu6KFN0bacbgJnNgSH-2" target="yqGu6KFN0bacbgJnNgSH-3">
          <mxGeometry width="160" relative="1" as="geometry">
            <mxPoint x="300" y="290" as="sourcePoint" />
            <mxPoint x="340" y="320" as="targetPoint" />
          </mxGeometry>
        </mxCell>
        <mxCell id="yqGu6KFN0bacbgJnNgSH-21" value="條件:當使用者不登入帳號&lt;div&gt;時機:建立日程時&lt;br&gt;&lt;div&gt;&lt;br&gt;&lt;/div&gt;&lt;/div&gt;" style="shape=note2;boundedLbl=1;whiteSpace=wrap;html=1;size=25;verticalAlign=top;align=center;" vertex="1" parent="1">
          <mxGeometry x="310" y="240" width="160" height="60" as="geometry" />
        </mxCell>
        <mxCell id="yqGu6KFN0bacbgJnNgSH-22" value="" style="endArrow=none;startArrow=none;endFill=0;startFill=0;endSize=8;html=1;verticalAlign=bottom;dashed=1;labelBackgroundColor=none;rounded=0;entryX=0.363;entryY=0.013;entryDx=0;entryDy=0;entryPerimeter=0;" edge="1" parent="1">
          <mxGeometry width="160" relative="1" as="geometry">
            <mxPoint x="322" y="280" as="sourcePoint" />
            <mxPoint x="260" y="310" as="targetPoint" />
          </mxGeometry>
        </mxCell>
      </root>
    </mxGraphModel>
  </diagram>
  <diagram id="caDtwu9yI_4HfXg-sW2g" name="活動圖">
    <mxGraphModel dx="2257" dy="534" grid="1" gridSize="10" guides="1" tooltips="1" connect="1" arrows="1" fold="1" page="1" pageScale="1" pageWidth="1169" pageHeight="1654" math="0" shadow="0">
      <root>
        <mxCell id="0" />
        <mxCell id="1" parent="0" />
        <mxCell id="q0BDvXO6tWzKFC_3-gvd-3" style="edgeStyle=orthogonalEdgeStyle;rounded=0;orthogonalLoop=1;jettySize=auto;html=1;exitX=0.5;exitY=1;exitDx=0;exitDy=0;endArrow=classic;endFill=1;entryX=0.5;entryY=0;entryDx=0;entryDy=0;" parent="1" target="q0BDvXO6tWzKFC_3-gvd-9" edge="1">
          <mxGeometry relative="1" as="geometry">
            <mxPoint x="219.20000000000005" y="564.6" as="targetPoint" />
            <mxPoint x="220" y="511" as="sourcePoint" />
          </mxGeometry>
        </mxCell>
        <mxCell id="q0BDvXO6tWzKFC_3-gvd-4" value="是否新增行程?" style="edgeLabel;html=1;align=center;verticalAlign=middle;resizable=0;points=[];" parent="q0BDvXO6tWzKFC_3-gvd-3" vertex="1" connectable="0">
          <mxGeometry x="-0.3248" y="3" relative="1" as="geometry">
            <mxPoint as="offset" />
          </mxGeometry>
        </mxCell>
        <mxCell id="eU7xOds4fGmkWbFTrqYS-4" style="edgeStyle=orthogonalEdgeStyle;rounded=0;orthogonalLoop=1;jettySize=auto;html=1;entryX=0.5;entryY=0;entryDx=0;entryDy=0;" edge="1" parent="1" target="eU7xOds4fGmkWbFTrqYS-2">
          <mxGeometry relative="1" as="geometry">
            <mxPoint x="220.0526315789475" y="171" as="sourcePoint" />
          </mxGeometry>
        </mxCell>
        <mxCell id="q0BDvXO6tWzKFC_3-gvd-6" style="rounded=0;orthogonalLoop=1;jettySize=auto;html=1;exitX=0.5;exitY=1;exitDx=0;exitDy=0;" parent="1" source="q0BDvXO6tWzKFC_3-gvd-9" edge="1">
          <mxGeometry relative="1" as="geometry">
            <mxPoint x="220" y="630" as="targetPoint" />
          </mxGeometry>
        </mxCell>
        <mxCell id="q0BDvXO6tWzKFC_3-gvd-7" style="edgeStyle=orthogonalEdgeStyle;rounded=0;orthogonalLoop=1;jettySize=auto;html=1;exitX=1;exitY=0.5;exitDx=0;exitDy=0;entryX=1;entryY=0.75;entryDx=0;entryDy=0;" parent="1" source="q0BDvXO6tWzKFC_3-gvd-9" edge="1">
          <mxGeometry relative="1" as="geometry">
            <mxPoint x="280" y="1271.5" as="targetPoint" />
            <Array as="points">
              <mxPoint x="410" y="571" />
              <mxPoint x="410" y="1272" />
            </Array>
          </mxGeometry>
        </mxCell>
        <mxCell id="q0BDvXO6tWzKFC_3-gvd-8" value="否" style="edgeLabel;html=1;align=center;verticalAlign=middle;resizable=0;points=[];" parent="q0BDvXO6tWzKFC_3-gvd-7" vertex="1" connectable="0">
          <mxGeometry x="-0.0565" y="-1" relative="1" as="geometry">
            <mxPoint x="-39" y="-270" as="offset" />
          </mxGeometry>
        </mxCell>
        <mxCell id="q0BDvXO6tWzKFC_3-gvd-9" value="" style="rhombus;aspect=fixed;" parent="1" vertex="1">
          <mxGeometry x="210" y="561" width="20" height="20" as="geometry" />
        </mxCell>
        <mxCell id="q0BDvXO6tWzKFC_3-gvd-10" style="edgeStyle=orthogonalEdgeStyle;rounded=0;orthogonalLoop=1;jettySize=auto;html=1;entryX=0.5;entryY=0;entryDx=0;entryDy=0;exitX=0.5;exitY=1;exitDx=0;exitDy=0;" parent="1" source="q0BDvXO6tWzKFC_3-gvd-41" target="q0BDvXO6tWzKFC_3-gvd-18" edge="1">
          <mxGeometry relative="1" as="geometry">
            <mxPoint x="220" y="703" as="targetPoint" />
            <mxPoint x="220" y="733" as="sourcePoint" />
          </mxGeometry>
        </mxCell>
        <mxCell id="q0BDvXO6tWzKFC_3-gvd-11" value="是否生成推薦排程?" style="edgeLabel;html=1;align=center;verticalAlign=middle;resizable=0;points=[];" parent="q0BDvXO6tWzKFC_3-gvd-10" vertex="1" connectable="0">
          <mxGeometry x="-0.0121" y="-2" relative="1" as="geometry">
            <mxPoint x="2" y="-1" as="offset" />
          </mxGeometry>
        </mxCell>
        <mxCell id="q0BDvXO6tWzKFC_3-gvd-12" style="edgeStyle=orthogonalEdgeStyle;rounded=0;orthogonalLoop=1;jettySize=auto;html=1;entryX=1;entryY=0.5;entryDx=0;entryDy=0;exitX=1;exitY=0.5;exitDx=0;exitDy=0;" parent="1" source="q0BDvXO6tWzKFC_3-gvd-41" target="q0BDvXO6tWzKFC_3-gvd-26" edge="1">
          <mxGeometry relative="1" as="geometry">
            <Array as="points">
              <mxPoint x="390" y="732" />
              <mxPoint x="390" y="1018" />
            </Array>
          </mxGeometry>
        </mxCell>
        <mxCell id="q0BDvXO6tWzKFC_3-gvd-13" value="建立行程" style="html=1;dashed=0;rounded=1;absoluteArcSize=1;arcSize=20;verticalAlign=middle;align=center;whiteSpace=wrap;" parent="1" vertex="1">
          <mxGeometry x="160" y="632" width="120" height="50" as="geometry" />
        </mxCell>
        <mxCell id="q0BDvXO6tWzKFC_3-gvd-14" value="查看推薦排程" style="html=1;dashed=0;rounded=1;absoluteArcSize=1;arcSize=20;verticalAlign=middle;align=center;whiteSpace=wrap;" parent="1" vertex="1">
          <mxGeometry x="160" y="853" width="120" height="50" as="geometry" />
        </mxCell>
        <mxCell id="q0BDvXO6tWzKFC_3-gvd-15" style="rounded=0;orthogonalLoop=1;jettySize=auto;html=1;exitX=0.5;exitY=1;exitDx=0;exitDy=0;entryX=0.5;entryY=0;entryDx=0;entryDy=0;" parent="1" source="q0BDvXO6tWzKFC_3-gvd-18" target="q0BDvXO6tWzKFC_3-gvd-14" edge="1">
          <mxGeometry relative="1" as="geometry">
            <mxPoint x="220" y="863" as="targetPoint" />
          </mxGeometry>
        </mxCell>
        <mxCell id="q0BDvXO6tWzKFC_3-gvd-16" style="edgeStyle=orthogonalEdgeStyle;rounded=0;orthogonalLoop=1;jettySize=auto;html=1;exitX=1;exitY=0.5;exitDx=0;exitDy=0;entryX=1;entryY=0.5;entryDx=0;entryDy=0;" parent="1" source="q0BDvXO6tWzKFC_3-gvd-18" target="q0BDvXO6tWzKFC_3-gvd-28" edge="1">
          <mxGeometry relative="1" as="geometry">
            <mxPoint x="280" y="813" as="targetPoint" />
            <Array as="points">
              <mxPoint x="340" y="813" />
              <mxPoint x="340" y="1150" />
            </Array>
          </mxGeometry>
        </mxCell>
        <mxCell id="q0BDvXO6tWzKFC_3-gvd-17" value="否" style="edgeLabel;html=1;align=center;verticalAlign=middle;resizable=0;points=[];" parent="q0BDvXO6tWzKFC_3-gvd-16" vertex="1" connectable="0">
          <mxGeometry x="-0.0565" y="-1" relative="1" as="geometry">
            <mxPoint x="-39" y="-101" as="offset" />
          </mxGeometry>
        </mxCell>
        <mxCell id="q0BDvXO6tWzKFC_3-gvd-18" value="" style="rhombus;aspect=fixed;" parent="1" vertex="1">
          <mxGeometry x="210" y="803" width="20" height="20" as="geometry" />
        </mxCell>
        <mxCell id="q0BDvXO6tWzKFC_3-gvd-19" style="edgeStyle=orthogonalEdgeStyle;rounded=0;orthogonalLoop=1;jettySize=auto;html=1;entryX=0.5;entryY=0;entryDx=0;entryDy=0;exitX=0.5;exitY=1;exitDx=0;exitDy=0;" parent="1" source="q0BDvXO6tWzKFC_3-gvd-14" target="q0BDvXO6tWzKFC_3-gvd-24" edge="1">
          <mxGeometry relative="1" as="geometry">
            <mxPoint x="220" y="943" as="targetPoint" />
            <mxPoint x="350" y="923" as="sourcePoint" />
          </mxGeometry>
        </mxCell>
        <mxCell id="q0BDvXO6tWzKFC_3-gvd-20" value="是否接受推薦排程?" style="edgeLabel;html=1;align=center;verticalAlign=middle;resizable=0;points=[];" parent="q0BDvXO6tWzKFC_3-gvd-19" vertex="1" connectable="0">
          <mxGeometry x="-0.0121" y="-2" relative="1" as="geometry">
            <mxPoint x="-2" y="-1" as="offset" />
          </mxGeometry>
        </mxCell>
        <mxCell id="q0BDvXO6tWzKFC_3-gvd-21" style="rounded=0;orthogonalLoop=1;jettySize=auto;html=1;exitX=0.5;exitY=1;exitDx=0;exitDy=0;entryX=0.5;entryY=0;entryDx=0;entryDy=0;" parent="1" source="q0BDvXO6tWzKFC_3-gvd-24" target="q0BDvXO6tWzKFC_3-gvd-26" edge="1">
          <mxGeometry relative="1" as="geometry">
            <mxPoint x="220" y="993" as="targetPoint" />
          </mxGeometry>
        </mxCell>
        <mxCell id="q0BDvXO6tWzKFC_3-gvd-22" style="edgeStyle=orthogonalEdgeStyle;rounded=0;orthogonalLoop=1;jettySize=auto;html=1;exitX=0;exitY=0.5;exitDx=0;exitDy=0;entryX=0;entryY=0.5;entryDx=0;entryDy=0;" parent="1" source="q0BDvXO6tWzKFC_3-gvd-24" target="q0BDvXO6tWzKFC_3-gvd-18" edge="1">
          <mxGeometry relative="1" as="geometry">
            <mxPoint x="280" y="953" as="targetPoint" />
            <Array as="points">
              <mxPoint x="130" y="953" />
              <mxPoint x="130" y="813" />
            </Array>
          </mxGeometry>
        </mxCell>
        <mxCell id="q0BDvXO6tWzKFC_3-gvd-23" value="否" style="edgeLabel;html=1;align=center;verticalAlign=middle;resizable=0;points=[];" parent="q0BDvXO6tWzKFC_3-gvd-22" vertex="1" connectable="0">
          <mxGeometry x="-0.0565" y="-1" relative="1" as="geometry">
            <mxPoint as="offset" />
          </mxGeometry>
        </mxCell>
        <mxCell id="q0BDvXO6tWzKFC_3-gvd-24" value="" style="rhombus;aspect=fixed;" parent="1" vertex="1">
          <mxGeometry x="210" y="943" width="20" height="20" as="geometry" />
        </mxCell>
        <mxCell id="q0BDvXO6tWzKFC_3-gvd-25" value="" style="edgeStyle=orthogonalEdgeStyle;rounded=0;orthogonalLoop=1;jettySize=auto;html=1;entryX=0.5;entryY=0;entryDx=0;entryDy=0;" parent="1" source="q0BDvXO6tWzKFC_3-gvd-26" target="q0BDvXO6tWzKFC_3-gvd-46" edge="1">
          <mxGeometry relative="1" as="geometry">
            <mxPoint x="220" y="1073" as="targetPoint" />
          </mxGeometry>
        </mxCell>
        <mxCell id="q0BDvXO6tWzKFC_3-gvd-26" value="維護日程" style="html=1;dashed=0;rounded=1;absoluteArcSize=1;arcSize=20;verticalAlign=middle;align=center;whiteSpace=wrap;" parent="1" vertex="1">
          <mxGeometry x="160" y="993" width="120" height="50" as="geometry" />
        </mxCell>
        <mxCell id="q0BDvXO6tWzKFC_3-gvd-27" value="" style="edgeStyle=orthogonalEdgeStyle;rounded=0;orthogonalLoop=1;jettySize=auto;html=1;" parent="1" source="q0BDvXO6tWzKFC_3-gvd-28" target="q0BDvXO6tWzKFC_3-gvd-30" edge="1">
          <mxGeometry relative="1" as="geometry" />
        </mxCell>
        <mxCell id="q0BDvXO6tWzKFC_3-gvd-28" value="執行動態排程" style="whiteSpace=wrap;html=1;dashed=0;rounded=1;arcSize=20;" parent="1" vertex="1">
          <mxGeometry x="160" y="1123" width="120" height="54" as="geometry" />
        </mxCell>
        <mxCell id="q0BDvXO6tWzKFC_3-gvd-29" value="" style="edgeStyle=orthogonalEdgeStyle;rounded=0;orthogonalLoop=1;jettySize=auto;html=1;" parent="1" source="q0BDvXO6tWzKFC_3-gvd-30" target="q0BDvXO6tWzKFC_3-gvd-31" edge="1">
          <mxGeometry relative="1" as="geometry" />
        </mxCell>
        <mxCell id="q0BDvXO6tWzKFC_3-gvd-30" value="使用者回饋" style="whiteSpace=wrap;html=1;dashed=0;rounded=1;arcSize=20;" parent="1" vertex="1">
          <mxGeometry x="160" y="1213" width="120" height="60" as="geometry" />
        </mxCell>
        <mxCell id="q0BDvXO6tWzKFC_3-gvd-31" value="" style="ellipse;html=1;shape=endState;fillColor=strokeColor;" parent="1" vertex="1">
          <mxGeometry x="205" y="1323" width="30" height="30" as="geometry" />
        </mxCell>
        <mxCell id="q0BDvXO6tWzKFC_3-gvd-32" value="" style="edgeStyle=orthogonalEdgeStyle;rounded=0;orthogonalLoop=1;jettySize=auto;html=1;" parent="1" source="q0BDvXO6tWzKFC_3-gvd-34" target="q0BDvXO6tWzKFC_3-gvd-39" edge="1">
          <mxGeometry relative="1" as="geometry" />
        </mxCell>
        <mxCell id="q0BDvXO6tWzKFC_3-gvd-33" value="是否修改個性化資料" style="edgeLabel;html=1;align=center;verticalAlign=middle;resizable=0;points=[];" parent="q0BDvXO6tWzKFC_3-gvd-32" vertex="1" connectable="0">
          <mxGeometry x="0.1517" relative="1" as="geometry">
            <mxPoint as="offset" />
          </mxGeometry>
        </mxCell>
        <mxCell id="q0BDvXO6tWzKFC_3-gvd-34" value="" style="ellipse;fillColor=strokeColor;html=1;" parent="1" vertex="1">
          <mxGeometry x="811" y="10" width="40" height="40" as="geometry" />
        </mxCell>
        <mxCell id="q0BDvXO6tWzKFC_3-gvd-35" value="" style="edgeStyle=orthogonalEdgeStyle;rounded=0;orthogonalLoop=1;jettySize=auto;html=1;" parent="1" source="q0BDvXO6tWzKFC_3-gvd-36" target="q0BDvXO6tWzKFC_3-gvd-40" edge="1">
          <mxGeometry relative="1" as="geometry" />
        </mxCell>
        <mxCell id="q0BDvXO6tWzKFC_3-gvd-36" value="修改個性化資料" style="whiteSpace=wrap;html=1;dashed=0;rounded=1;arcSize=20;" parent="1" vertex="1">
          <mxGeometry x="771" y="150" width="120" height="50" as="geometry" />
        </mxCell>
        <mxCell id="q0BDvXO6tWzKFC_3-gvd-37" value="" style="edgeStyle=orthogonalEdgeStyle;rounded=0;orthogonalLoop=1;jettySize=auto;html=1;" parent="1" source="q0BDvXO6tWzKFC_3-gvd-39" target="q0BDvXO6tWzKFC_3-gvd-36" edge="1">
          <mxGeometry relative="1" as="geometry" />
        </mxCell>
        <mxCell id="q0BDvXO6tWzKFC_3-gvd-38" style="edgeStyle=orthogonalEdgeStyle;rounded=0;orthogonalLoop=1;jettySize=auto;html=1;exitX=1;exitY=0.5;exitDx=0;exitDy=0;entryX=1;entryY=0.5;entryDx=0;entryDy=0;" parent="1" source="q0BDvXO6tWzKFC_3-gvd-39" target="q0BDvXO6tWzKFC_3-gvd-40" edge="1">
          <mxGeometry relative="1" as="geometry">
            <mxPoint x="930.9999999999998" y="250" as="targetPoint" />
            <Array as="points">
              <mxPoint x="931" y="110" />
              <mxPoint x="931" y="255" />
            </Array>
          </mxGeometry>
        </mxCell>
        <mxCell id="q0BDvXO6tWzKFC_3-gvd-39" value="" style="rhombus;aspect=fixed;" parent="1" vertex="1">
          <mxGeometry x="821" y="100" width="20" height="20" as="geometry" />
        </mxCell>
        <mxCell id="q0BDvXO6tWzKFC_3-gvd-40" value="" style="ellipse;html=1;shape=endState;fillColor=strokeColor;" parent="1" vertex="1">
          <mxGeometry x="816" y="240" width="30" height="30" as="geometry" />
        </mxCell>
        <mxCell id="q0BDvXO6tWzKFC_3-gvd-41" value="" style="rhombus;aspect=fixed;" parent="1" vertex="1">
          <mxGeometry x="210" y="722" width="20" height="20" as="geometry" />
        </mxCell>
        <mxCell id="q0BDvXO6tWzKFC_3-gvd-42" style="edgeStyle=orthogonalEdgeStyle;rounded=0;orthogonalLoop=1;jettySize=auto;html=1;entryX=0.524;entryY=0.253;entryDx=0;entryDy=0;entryPerimeter=0;" parent="1" source="q0BDvXO6tWzKFC_3-gvd-13" target="q0BDvXO6tWzKFC_3-gvd-41" edge="1">
          <mxGeometry relative="1" as="geometry" />
        </mxCell>
        <mxCell id="q0BDvXO6tWzKFC_3-gvd-43" value="是否行程衝突?" style="edgeLabel;html=1;align=center;verticalAlign=middle;resizable=0;points=[];" parent="1" vertex="1" connectable="0">
          <mxGeometry x="220" y="702.0028571428571" as="geometry" />
        </mxCell>
        <mxCell id="q0BDvXO6tWzKFC_3-gvd-44" value="是" style="edgeLabel;html=1;align=center;verticalAlign=middle;resizable=0;points=[];" parent="1" vertex="1" connectable="0">
          <mxGeometry x="300" y="622" as="geometry">
            <mxPoint x="3" y="134" as="offset" />
          </mxGeometry>
        </mxCell>
        <mxCell id="q0BDvXO6tWzKFC_3-gvd-45" style="edgeStyle=orthogonalEdgeStyle;rounded=0;orthogonalLoop=1;jettySize=auto;html=1;" parent="1" source="q0BDvXO6tWzKFC_3-gvd-46" target="q0BDvXO6tWzKFC_3-gvd-28" edge="1">
          <mxGeometry relative="1" as="geometry" />
        </mxCell>
        <mxCell id="q0BDvXO6tWzKFC_3-gvd-46" value="" style="rhombus;aspect=fixed;" parent="1" vertex="1">
          <mxGeometry x="210" y="1083" width="20" height="20" as="geometry" />
        </mxCell>
        <mxCell id="q0BDvXO6tWzKFC_3-gvd-47" value="是否建立其他排程?" style="edgeLabel;html=1;align=center;verticalAlign=middle;resizable=0;points=[];" parent="1" vertex="1" connectable="0">
          <mxGeometry x="220" y="1063" as="geometry" />
        </mxCell>
        <mxCell id="q0BDvXO6tWzKFC_3-gvd-48" style="edgeStyle=orthogonalEdgeStyle;rounded=0;orthogonalLoop=1;jettySize=auto;html=1;entryX=0;entryY=0.4;entryDx=0;entryDy=0;entryPerimeter=0;exitX=0;exitY=0.5;exitDx=0;exitDy=0;" parent="1" source="q0BDvXO6tWzKFC_3-gvd-46" target="q0BDvXO6tWzKFC_3-gvd-13" edge="1">
          <mxGeometry relative="1" as="geometry">
            <Array as="points">
              <mxPoint x="100" y="1093" />
              <mxPoint x="100" y="652" />
            </Array>
          </mxGeometry>
        </mxCell>
        <mxCell id="q0BDvXO6tWzKFC_3-gvd-49" value="是" style="edgeLabel;html=1;align=center;verticalAlign=middle;resizable=0;points=[];" parent="1" vertex="1" connectable="0">
          <mxGeometry x="141" y="901.3333333333333" as="geometry">
            <mxPoint x="26" y="189" as="offset" />
          </mxGeometry>
        </mxCell>
        <mxCell id="q0BDvXO6tWzKFC_3-gvd-50" value="" style="edgeStyle=orthogonalEdgeStyle;rounded=0;orthogonalLoop=1;jettySize=auto;html=1;endArrow=classic;endFill=1;entryX=0.5;entryY=0;entryDx=0;entryDy=0;" parent="1" source="q0BDvXO6tWzKFC_3-gvd-52" target="q0BDvXO6tWzKFC_3-gvd-58" edge="1">
          <mxGeometry relative="1" as="geometry">
            <mxPoint x="1061" y="222.5" as="targetPoint" />
          </mxGeometry>
        </mxCell>
        <mxCell id="q0BDvXO6tWzKFC_3-gvd-51" value="是否已註冊帳號?" style="edgeLabel;html=1;align=center;verticalAlign=middle;resizable=0;points=[];" parent="q0BDvXO6tWzKFC_3-gvd-50" vertex="1" connectable="0">
          <mxGeometry relative="1" as="geometry">
            <mxPoint as="offset" />
          </mxGeometry>
        </mxCell>
        <mxCell id="q0BDvXO6tWzKFC_3-gvd-52" value="客戶登入" style="html=1;dashed=0;rounded=1;absoluteArcSize=1;arcSize=20;verticalAlign=middle;align=center;whiteSpace=wrap;" parent="1" vertex="1">
          <mxGeometry x="1001" y="122.5" width="120" height="50" as="geometry" />
        </mxCell>
        <mxCell id="q0BDvXO6tWzKFC_3-gvd-53" style="edgeStyle=orthogonalEdgeStyle;rounded=0;orthogonalLoop=1;jettySize=auto;html=1;exitX=0.5;exitY=1;exitDx=0;exitDy=0;endArrow=classic;endFill=1;" parent="1" target="q0BDvXO6tWzKFC_3-gvd-52" edge="1">
          <mxGeometry relative="1" as="geometry">
            <mxPoint x="1061" y="92.5" as="sourcePoint" />
          </mxGeometry>
        </mxCell>
        <mxCell id="q0BDvXO6tWzKFC_3-gvd-54" style="edgeStyle=orthogonalEdgeStyle;rounded=0;orthogonalLoop=1;jettySize=auto;html=1;exitX=1;exitY=0.5;exitDx=0;exitDy=0;endArrow=classic;endFill=1;entryX=0;entryY=0.5;entryDx=0;entryDy=0;" parent="1" source="q0BDvXO6tWzKFC_3-gvd-58" target="q0BDvXO6tWzKFC_3-gvd-57" edge="1">
          <mxGeometry relative="1" as="geometry">
            <mxPoint x="1241" y="192.5" as="targetPoint" />
            <mxPoint x="1101" y="262.5" as="sourcePoint" />
          </mxGeometry>
        </mxCell>
        <mxCell id="q0BDvXO6tWzKFC_3-gvd-55" value="否" style="edgeLabel;html=1;align=center;verticalAlign=middle;resizable=0;points=[];" parent="q0BDvXO6tWzKFC_3-gvd-54" vertex="1" connectable="0">
          <mxGeometry x="0.1563" relative="1" as="geometry">
            <mxPoint x="-19" as="offset" />
          </mxGeometry>
        </mxCell>
        <mxCell id="q0BDvXO6tWzKFC_3-gvd-56" value="" style="edgeStyle=orthogonalEdgeStyle;rounded=0;orthogonalLoop=1;jettySize=auto;html=1;" parent="1" source="q0BDvXO6tWzKFC_3-gvd-57" target="q0BDvXO6tWzKFC_3-gvd-60" edge="1">
          <mxGeometry relative="1" as="geometry" />
        </mxCell>
        <mxCell id="q0BDvXO6tWzKFC_3-gvd-57" value="註冊" style="html=1;dashed=0;rounded=1;absoluteArcSize=1;arcSize=20;verticalAlign=middle;align=center;whiteSpace=wrap;" parent="1" vertex="1">
          <mxGeometry x="1201" y="207.5" width="120" height="50" as="geometry" />
        </mxCell>
        <mxCell id="q0BDvXO6tWzKFC_3-gvd-58" value="" style="rhombus;aspect=fixed;" parent="1" vertex="1">
          <mxGeometry x="1051" y="222.5" width="20" height="20" as="geometry" />
        </mxCell>
        <mxCell id="q0BDvXO6tWzKFC_3-gvd-59" value="" style="edgeStyle=orthogonalEdgeStyle;rounded=0;orthogonalLoop=1;jettySize=auto;html=1;" parent="1" source="q0BDvXO6tWzKFC_3-gvd-60" target="q0BDvXO6tWzKFC_3-gvd-52" edge="1">
          <mxGeometry relative="1" as="geometry" />
        </mxCell>
        <mxCell id="q0BDvXO6tWzKFC_3-gvd-60" value="填寫個性化問卷" style="whiteSpace=wrap;html=1;dashed=0;rounded=1;arcSize=20;" parent="1" vertex="1">
          <mxGeometry x="1201" y="122.5" width="120" height="50" as="geometry" />
        </mxCell>
        <mxCell id="q0BDvXO6tWzKFC_3-gvd-61" value="" style="ellipse;fillColor=strokeColor;html=1;" parent="1" vertex="1">
          <mxGeometry x="1041" y="50" width="40" height="40" as="geometry" />
        </mxCell>
        <mxCell id="eU7xOds4fGmkWbFTrqYS-37" value="" style="edgeStyle=orthogonalEdgeStyle;rounded=0;orthogonalLoop=1;jettySize=auto;html=1;" edge="1" parent="1" source="eU7xOds4fGmkWbFTrqYS-1" target="eU7xOds4fGmkWbFTrqYS-35">
          <mxGeometry relative="1" as="geometry" />
        </mxCell>
        <mxCell id="eU7xOds4fGmkWbFTrqYS-1" value="客戶登入" style="html=1;dashed=0;rounded=1;absoluteArcSize=1;arcSize=20;verticalAlign=middle;align=center;whiteSpace=wrap;" vertex="1" parent="1">
          <mxGeometry x="160" y="270" width="120" height="50" as="geometry" />
        </mxCell>
        <mxCell id="eU7xOds4fGmkWbFTrqYS-30" style="edgeStyle=orthogonalEdgeStyle;rounded=0;orthogonalLoop=1;jettySize=auto;html=1;entryX=1.016;entryY=0.641;entryDx=0;entryDy=0;entryPerimeter=0;" edge="1" parent="1" target="eU7xOds4fGmkWbFTrqYS-40">
          <mxGeometry relative="1" as="geometry">
            <mxPoint x="230" y="213" as="sourcePoint" />
            <mxPoint x="470" y="500" as="targetPoint" />
            <Array as="points">
              <mxPoint x="320" y="213" />
              <mxPoint x="320" y="492" />
            </Array>
          </mxGeometry>
        </mxCell>
        <mxCell id="eU7xOds4fGmkWbFTrqYS-32" value="" style="edgeStyle=orthogonalEdgeStyle;rounded=0;orthogonalLoop=1;jettySize=auto;html=1;" edge="1" parent="1" source="eU7xOds4fGmkWbFTrqYS-2">
          <mxGeometry relative="1" as="geometry">
            <mxPoint x="220" y="270" as="targetPoint" />
          </mxGeometry>
        </mxCell>
        <mxCell id="eU7xOds4fGmkWbFTrqYS-47" value="是" style="edgeLabel;html=1;align=center;verticalAlign=middle;resizable=0;points=[];" vertex="1" connectable="0" parent="eU7xOds4fGmkWbFTrqYS-32">
          <mxGeometry x="0.0106" y="5" relative="1" as="geometry">
            <mxPoint y="-1" as="offset" />
          </mxGeometry>
        </mxCell>
        <mxCell id="eU7xOds4fGmkWbFTrqYS-2" value="" style="rhombus;aspect=fixed;" vertex="1" parent="1">
          <mxGeometry x="210" y="204" width="20" height="20" as="geometry" />
        </mxCell>
        <mxCell id="eU7xOds4fGmkWbFTrqYS-5" value="是否要登入" style="text;html=1;align=center;verticalAlign=middle;resizable=0;points=[];autosize=1;strokeColor=none;fillColor=none;" vertex="1" parent="1">
          <mxGeometry x="210" y="177.5" width="80" height="30" as="geometry" />
        </mxCell>
        <mxCell id="eU7xOds4fGmkWbFTrqYS-44" value="" style="edgeStyle=orthogonalEdgeStyle;rounded=0;orthogonalLoop=1;jettySize=auto;html=1;" edge="1" parent="1" source="eU7xOds4fGmkWbFTrqYS-33" target="eU7xOds4fGmkWbFTrqYS-43">
          <mxGeometry relative="1" as="geometry" />
        </mxCell>
        <mxCell id="eU7xOds4fGmkWbFTrqYS-33" value="註冊" style="html=1;dashed=0;rounded=1;absoluteArcSize=1;arcSize=20;verticalAlign=middle;align=center;whiteSpace=wrap;" vertex="1" parent="1">
          <mxGeometry x="-48" y="365" width="120" height="50" as="geometry" />
        </mxCell>
        <mxCell id="eU7xOds4fGmkWbFTrqYS-34" value="是否已註冊" style="text;html=1;align=center;verticalAlign=middle;resizable=0;points=[];autosize=1;strokeColor=none;fillColor=none;" vertex="1" parent="1">
          <mxGeometry x="210" y="320" width="80" height="30" as="geometry" />
        </mxCell>
        <mxCell id="eU7xOds4fGmkWbFTrqYS-41" value="" style="edgeStyle=orthogonalEdgeStyle;rounded=0;orthogonalLoop=1;jettySize=auto;html=1;" edge="1" parent="1" source="eU7xOds4fGmkWbFTrqYS-35" target="eU7xOds4fGmkWbFTrqYS-40">
          <mxGeometry relative="1" as="geometry" />
        </mxCell>
        <mxCell id="eU7xOds4fGmkWbFTrqYS-48" value="是" style="edgeLabel;html=1;align=center;verticalAlign=middle;resizable=0;points=[];" vertex="1" connectable="0" parent="eU7xOds4fGmkWbFTrqYS-41">
          <mxGeometry x="0.0048" y="6" relative="1" as="geometry">
            <mxPoint as="offset" />
          </mxGeometry>
        </mxCell>
        <mxCell id="eU7xOds4fGmkWbFTrqYS-42" value="" style="edgeStyle=orthogonalEdgeStyle;rounded=0;orthogonalLoop=1;jettySize=auto;html=1;" edge="1" parent="1" source="eU7xOds4fGmkWbFTrqYS-35" target="eU7xOds4fGmkWbFTrqYS-33">
          <mxGeometry relative="1" as="geometry" />
        </mxCell>
        <mxCell id="eU7xOds4fGmkWbFTrqYS-35" value="" style="rhombus;aspect=fixed;" vertex="1" parent="1">
          <mxGeometry x="210" y="380" width="20" height="20" as="geometry" />
        </mxCell>
        <mxCell id="eU7xOds4fGmkWbFTrqYS-40" value="進入單日日程表" style="html=1;dashed=0;rounded=1;absoluteArcSize=1;arcSize=20;verticalAlign=middle;align=center;whiteSpace=wrap;" vertex="1" parent="1">
          <mxGeometry x="160" y="460" width="120" height="50" as="geometry" />
        </mxCell>
        <mxCell id="eU7xOds4fGmkWbFTrqYS-45" value="" style="edgeStyle=orthogonalEdgeStyle;rounded=0;orthogonalLoop=1;jettySize=auto;html=1;" edge="1" parent="1" source="eU7xOds4fGmkWbFTrqYS-43" target="eU7xOds4fGmkWbFTrqYS-1">
          <mxGeometry relative="1" as="geometry" />
        </mxCell>
        <mxCell id="eU7xOds4fGmkWbFTrqYS-43" value="填寫個性化問卷" style="whiteSpace=wrap;html=1;dashed=0;rounded=1;arcSize=20;" vertex="1" parent="1">
          <mxGeometry x="-48" y="270" width="120" height="50" as="geometry" />
        </mxCell>
        <mxCell id="eU7xOds4fGmkWbFTrqYS-46" value="否" style="text;html=1;align=center;verticalAlign=middle;resizable=0;points=[];autosize=1;strokeColor=none;fillColor=none;" vertex="1" parent="1">
          <mxGeometry x="310" y="228" width="40" height="30" as="geometry" />
        </mxCell>
        <mxCell id="eU7xOds4fGmkWbFTrqYS-49" value="否" style="text;html=1;align=center;verticalAlign=middle;resizable=0;points=[];autosize=1;strokeColor=none;fillColor=none;" vertex="1" parent="1">
          <mxGeometry x="110" y="358" width="40" height="30" as="geometry" />
        </mxCell>
        <mxCell id="eU7xOds4fGmkWbFTrqYS-50" value="" style="ellipse;fillColor=strokeColor;html=1;" vertex="1" parent="1">
          <mxGeometry x="200" y="31" width="40" height="40" as="geometry" />
        </mxCell>
        <mxCell id="eU7xOds4fGmkWbFTrqYS-51" style="edgeStyle=orthogonalEdgeStyle;rounded=0;orthogonalLoop=1;jettySize=auto;html=1;exitX=0.5;exitY=1;exitDx=0;exitDy=0;endArrow=classic;endFill=1;" edge="1" parent="1" target="eU7xOds4fGmkWbFTrqYS-52">
          <mxGeometry relative="1" as="geometry">
            <mxPoint x="220" y="181" as="targetPoint" />
            <mxPoint x="220" y="71" as="sourcePoint" />
          </mxGeometry>
        </mxCell>
        <mxCell id="eU7xOds4fGmkWbFTrqYS-52" value="點擊日程表" style="html=1;dashed=0;rounded=1;absoluteArcSize=1;arcSize=20;verticalAlign=middle;align=center;whiteSpace=wrap;" vertex="1" parent="1">
          <mxGeometry x="160" y="121" width="120" height="50" as="geometry" />
        </mxCell>
      </root>
    </mxGraphModel>
  </diagram>
</mxfile>
